<?xml version="1.0"?>
<svg version="1.1" xmlns="http://www.w3.org/2000/svg" width="180" height="42" style=""><path fill="#" d="M33.704,37.352c0,0.056,0,0.112-0.028,0.196l-0.448,1.54c-0.112,0.364-0.28,0.616-0.588,0.616c-0.224,0-0.784-0.112-1.092-0.196c-1.708-0.504-3.108-1.596-4.228-2.324c-0.728-0.476-1.204-0.784-2.268-0.784c-0.42,0-0.812,0-1.204-0.028c-5.096-0.308-7.644-4.508-7.644-9.856c0-5.6,3.052-10.136,8.624-10.136c5.768,0,8.428,4.536,8.428,9.94c0,3.864-1.4,7.168-4.172,8.876c1.008,0.56,2.52,1.204,3.78,1.512c0.644,0.168,0.84,0.308,0.84,0.644z M29.392,26.404c0-4.2-1.372-6.972-4.648-6.972c-3.052,0-4.676,3.052-4.676,6.972c0,4.144,1.4,7.056,4.676,7.056c3.08,0,4.648-2.996,4.648-7.056z M49.79,35.336c0,0.588-0.168,0.784-0.728,0.784l-1.792,0c-0.364,0-0.644-0.196-0.672-0.56l-0.028-0.7c-1.288,1.036-2.828,1.596-4.452,1.596c-3.136,0-4.424-1.988-4.424-5.012l0-8.26c0-0.476,0.28-0.644,0.728-0.644l1.96,0c0.448,0,0.7,0.14,0.7,0.644l0,7.672c0,1.54,0.392,2.604,2.072,2.604c1.064,0,2.408-0.588,3.248-1.344l0-8.932c0-0.476,0.252-0.644,0.7-0.644l1.988,0c0.448,0,0.7,0.14,0.7,0.644l0,12.152z M58.736,18.984c0,1.092-0.952,1.764-1.876,1.764s-1.904-0.616-1.904-1.736s0.924-1.792,1.904-1.792c0.952,0,1.876,0.644,1.876,1.764z M58.568,35.42c0,0.504-0.224,0.7-0.7,0.7l-1.96,0c-0.504,0-0.728-0.196-0.728-0.7l0-12.236c0-0.476,0.28-0.644,0.728-0.644l1.96,0c0.448,0,0.7,0.14,0.7,0.644l0,12.236z M73.534,35.588c0,0.336-0.196,0.532-0.532,0.532l-9.492,0c-0.504,0-0.672-0.28-0.672-0.672l0-0.7c0-0.392,0.028-0.588,0.28-0.952l6.048-8.904l0-0.028l-5.18,0c-0.532,0-0.644-0.14-0.644-0.728l0-1.008c0-0.336,0.168-0.588,0.532-0.588l8.848,0c0.532,0,0.644,0.28,0.644,0.588l0,0.784c0,0.336-0.056,0.616-0.28,0.924l-6.16,8.904l0,0.056l6.048,0c0.336,0,0.56,0.112,0.56,0.476l0,1.316z M101.716,17.192c0,0.084-0.028,0.168-0.056,0.252l-5.236,17.92c-0.14,0.504-0.448,0.756-0.924,0.756l-1.848,0c-0.448,0-0.756-0.224-0.896-0.728l-3.64-12.824l-0.056,0l-3.64,12.74c-0.196,0.644-0.42,0.812-0.952,0.812l-1.792,0c-0.476,0-0.728-0.14-0.924-0.84l-5.348-17.724c-0.028-0.14-0.056-0.252-0.056-0.364c0-0.308,0.168-0.448,0.504-0.448l2.688,0c0.588,0,0.84,0.252,0.952,0.7l3.416,12.908l0.028,0l3.556-12.992c0.112-0.448,0.42-0.616,0.84-0.616l1.876,0c0.448,0,0.672,0.224,0.784,0.588l3.556,13.02l0.056,0l3.388-12.964c0.14-0.504,0.448-0.644,0.868-0.644l2.408,0c0.308,0,0.448,0.196,0.448,0.448z M117.858,35.56c0,0.42-0.084,0.56-0.448,0.56l-2.464,0c-0.392,0-0.476-0.112-0.476-0.56l0-7.784c0-1.512-0.42-2.632-2.1-2.632c-1.092,0-2.492,0.588-3.36,1.344l0,9.072c0,0.42-0.112,0.56-0.532,0.56l-2.408,0c-0.336,0-0.448-0.14-0.448-0.504l0-18.508c0-0.504,0.224-0.644,0.616-0.7l1.932-0.252c0.112-0.028,0.252-0.028,0.364-0.028c0.308,0,0.476,0.14,0.476,0.532l0,7.028c1.176-0.98,2.94-1.512,4.424-1.512c3.136,0,4.424,1.988,4.424,5.012l0,8.372z M126.832,18.984c0,1.092-0.952,1.764-1.876,1.764s-1.904-0.616-1.904-1.736s0.924-1.792,1.904-1.792c0.952,0,1.876,0.644,1.876,1.764z M126.664,35.42c0,0.504-0.224,0.7-0.7,0.7l-1.96,0c-0.504,0-0.728-0.196-0.728-0.7l0-12.236c0-0.476,0.28-0.644,0.728-0.644l1.96,0c0.448,0,0.7,0.14,0.7,0.644l0,12.236z M141.63,35.588c0,0.336-0.196,0.532-0.532,0.532l-9.492,0c-0.504,0-0.672-0.28-0.672-0.672l0-0.7c0-0.392,0.028-0.588,0.28-0.952l6.048-8.904l0-0.028l-5.18,0c-0.532,0-0.644-0.14-0.644-0.728l0-1.008c0-0.336,0.168-0.588,0.532-0.588l8.848,0c0.532,0,0.644,0.28,0.644,0.588l0,0.784c0,0.336-0.056,0.616-0.28,0.924l-6.16,8.904l0,0.056l6.048,0c0.336,0,0.56,0.112,0.56,0.476l0,1.316z"/><path fill="#" d=""/></svg>
